<svg version="1.1" id="Layer_1" xmlns="http://www.w3.org/2000/svg" xmlns:xlink="http://www.w3.org/1999/xlink" x="0px" y="0px"
	 width="100%" viewBox="0 0 555 262" enable-background="new 0 0 555 262" xml:space="preserve">
<path fill="#945E48" opacity="1.000000" stroke="none" 
	d="
M247.000000,1.000000 
	C285.020905,1.000000 323.041779,1.000000 361.548401,1.388036 
	C366.387421,11.245350 370.366913,20.908957 375.167877,30.145573 
	C387.072235,53.048466 402.567047,73.406494 421.075592,91.326523 
	C434.220795,104.053757 448.598724,115.275627 464.242462,124.978157 
	C492.630341,142.584854 523.231323,154.045547 556.000000,160.000000 
	C556.000000,194.234879 556.000000,228.469742 556.000000,263.000000 
	C539.646973,263.000000 523.292114,263.000000 506.293823,262.698486 
	C504.059570,261.588989 502.550140,260.497650 500.866180,260.014496 
	C459.070129,248.023468 420.306885,229.827560 385.205170,203.988907 
	C381.665710,201.383484 377.388519,199.780304 373.498230,197.423584 
	C373.292328,196.023941 373.041840,194.912689 372.752075,193.387451 
	C371.508881,188.554047 370.374023,184.114136 369.071228,179.724045 
	C368.440582,177.598831 368.784180,173.969849 365.124878,175.056747 
	C363.695007,175.481430 362.972229,178.286606 361.732910,180.243622 
	C361.456268,180.873016 361.374146,181.266373 361.191284,181.848541 
	C360.936310,182.429474 360.782013,182.821609 360.259583,183.104385 
	C357.308807,181.664581 354.726135,180.334137 351.981232,178.714447 
	C350.213776,177.041611 348.608582,175.658020 346.911682,173.929810 
	C346.121002,172.473648 345.574677,171.221420 344.699585,170.272308 
	C335.818909,160.640320 326.611938,151.292526 318.070160,141.371094 
	C313.150116,135.656357 309.281616,129.036316 305.083923,122.522751 
	C305.527008,120.685944 305.825897,119.150139 306.263641,116.900841 
	C308.659729,114.166122 311.775482,110.610031 314.924286,107.016228 
	C308.437012,105.333359 303.159729,103.964378 297.008636,102.368721 
	C303.491333,95.943535 308.978760,90.630280 310.180817,82.322426 
	C308.374817,82.479988 306.991211,82.600693 305.918823,82.694252 
	C308.446320,78.421730 310.970428,74.154953 313.494537,69.888176 
	C313.085449,69.581459 312.676361,69.274742 312.267273,68.968025 
	C311.351227,69.220215 310.435211,69.472404 309.287109,69.434387 
	C308.894226,68.955750 308.733398,68.767303 308.660706,68.229851 
	C311.312714,62.389900 313.876617,56.898964 317.124237,49.943707 
	C310.937775,53.197399 305.627350,55.990356 300.310150,58.786865 
	C299.932373,57.570305 299.602234,56.507210 299.153107,55.060928 
	C295.461853,59.123066 292.193939,62.719307 288.473297,66.813759 
	C287.490906,63.240406 286.799377,60.725193 286.177185,58.462082 
	C281.560181,63.519146 277.277130,68.210434 272.945129,72.548965 
	C272.822662,71.872421 272.813080,71.515884 272.666443,71.229515 
	C263.499237,53.326511 255.953293,34.767567 250.336700,15.451668 
	C248.958466,10.711793 248.098328,5.821268 247.000000,1.000000 
M445.201233,192.217590 
	C445.786469,190.138031 446.371704,188.058487 447.135437,185.275330 
	C447.297729,174.961044 444.533630,172.896179 433.819305,175.679504 
	C433.819305,181.718124 433.751892,187.853683 433.880219,193.985153 
	C433.903870,195.115494 434.719849,196.229218 435.709656,197.574707 
	C436.084259,197.500015 436.458832,197.425323 437.622437,197.058975 
	C438.039246,195.324265 438.456085,193.589554 438.926880,191.630264 
	C442.058411,193.318939 441.445709,199.412125 447.129974,196.758179 
	C446.523132,195.488678 445.920288,194.227585 445.201233,192.217590 
M416.273560,197.468521 
	C418.762939,197.504395 421.258911,197.438797 423.740082,197.600677 
	C427.192505,197.825897 427.708252,196.169128 426.714386,193.164993 
	C424.471344,193.008331 422.223846,192.851364 419.600067,192.668121 
	C419.768707,190.933380 419.902527,189.556610 420.024475,188.302139 
	C422.097412,188.044662 423.694122,187.846313 425.290863,187.647980 
	C425.548004,187.215485 425.805115,186.782990 426.062256,186.350494 
	C424.992981,185.497849 423.972168,183.996994 422.845459,183.912720 
	C419.303070,183.647812 419.175537,181.983475 420.354156,179.019058 
	C422.483215,179.019058 424.585327,179.019058 426.661011,179.019058 
	C426.936676,174.396301 423.517334,173.466843 414.506989,175.709824 
	C414.821625,182.776337 415.143036,189.994095 416.273560,197.468521 
M452.707428,175.906326 
	C455.272888,181.986496 458.168121,187.939850 457.319824,194.930634 
	C457.217072,195.777420 459.623535,196.928711 460.573059,197.700043 
	C462.490540,189.514603 464.154968,182.409332 465.869812,175.088867 
	C461.824097,172.796448 461.674744,178.112610 459.452515,179.691513 
	C457.539764,177.564957 457.425415,173.119522 452.707428,175.906326 
M401.906128,192.126465 
	C401.804718,187.665543 401.550140,183.201218 401.649719,178.744781 
	C401.731598,175.082413 400.452026,173.996277 397.151672,175.372452 
	C397.151672,182.714172 397.151672,189.807037 397.151672,196.849579 
	C406.530945,199.023636 409.469635,198.031403 408.478668,193.086472 
	C406.512360,192.981796 404.533630,192.876465 401.906128,192.126465 
M383.919891,184.502380 
	C383.919891,181.416595 383.919891,178.330811 383.919891,174.792725 
	C381.909058,174.994431 380.558655,175.129898 379.396149,175.246506 
	C379.396149,182.834213 379.396149,189.900467 379.396149,196.886215 
	C388.671265,198.912277 391.464508,198.039520 390.957764,193.166916 
	C388.780121,193.013138 386.552490,192.855835 383.919739,192.669907 
	C383.919739,190.035736 383.919739,187.746628 383.919891,184.502380 
z"/>
<path fill="#8F5841" opacity="1.000000" stroke="none" 
	d="
M373.453674,197.711990 
	C377.388519,199.780304 381.665710,201.383484 385.205170,203.988907 
	C420.306885,229.827560 459.070129,248.023468 500.866180,260.014496 
	C502.550140,260.497650 504.059570,261.588989 505.825165,262.698486 
	C431.979095,263.000000 357.958221,263.000000 283.381866,262.658264 
	C281.317841,260.188690 280.019653,257.867279 278.267914,255.963135 
	C261.927887,238.201553 245.524261,220.498352 229.097809,202.816574 
	C226.886932,200.436722 224.447586,198.269089 222.111359,195.597382 
	C224.541290,191.563812 226.428162,191.668259 228.638031,195.185577 
	C229.401428,196.400620 231.079575,197.040939 232.339859,197.943802 
	C232.746689,197.546677 233.153519,197.149536 233.560349,196.752411 
	C231.881744,190.419281 230.312241,184.053391 228.428192,177.781998 
	C228.071442,176.594513 226.221497,174.820007 225.490021,175.005936 
	C224.152176,175.346008 222.650391,176.740250 222.083771,178.065491 
	C220.864136,180.917969 220.194519,184.005630 218.946381,186.905426 
	C216.265488,185.477310 213.938019,184.140793 211.720337,182.426544 
	C212.775909,177.280518 209.906433,175.302902 205.921112,173.721741 
	C204.984634,171.385300 204.373566,169.255081 203.238327,167.455505 
	C185.350891,139.100159 169.770813,109.627922 157.906998,78.168106 
	C148.424210,53.022152 140.348328,27.562582 136.000000,1.000000 
	C172.687561,1.000000 209.375122,1.000000 246.531342,1.000000 
	C248.098328,5.821268 248.958466,10.711793 250.336700,15.451668 
	C255.953293,34.767567 263.499237,53.326511 272.666443,71.229515 
	C272.813080,71.515884 272.822662,71.872421 272.693115,72.832321 
	C266.324982,75.968719 266.218597,76.018280 263.402100,69.972008 
	C261.445343,65.771431 259.831360,61.411190 257.960907,56.871410 
	C254.934143,62.425652 252.937332,68.166855 249.219269,72.394165 
	C244.424805,77.845367 239.685791,82.935059 239.304489,90.667755 
	C237.315918,89.963486 235.848633,89.443848 233.853943,88.737411 
	C231.875473,100.564697 231.231262,111.598526 239.301102,120.897194 
	C237.155380,124.128235 234.327133,126.894402 233.316238,130.214005 
	C231.079239,137.559937 228.357956,144.275299 220.619507,148.043442 
	C222.431931,149.942368 223.759705,151.333527 225.232407,152.876526 
	C231.847687,148.527420 234.874496,142.308563 237.084747,135.364212 
	C238.180115,131.922684 240.142700,128.757156 242.116714,124.620613 
	C253.565781,138.371002 267.400513,140.239548 283.479462,138.355133 
	C280.327423,136.074539 278.148773,134.498215 275.970093,132.921875 
	C276.096985,132.495834 276.223846,132.069778 276.350739,131.643738 
	C282.551331,131.643738 288.751953,131.643738 295.995697,131.643738 
	C294.141205,129.072464 293.221008,127.796593 292.495331,126.790421 
	C296.789948,125.421509 300.864838,124.122635 304.939758,122.823761 
	C309.281616,129.036316 313.150116,135.656357 318.070160,141.371094 
	C326.611938,151.292526 335.818909,160.640320 344.699585,170.272308 
	C345.574677,171.221420 346.121002,172.473648 346.500092,173.955444 
	C342.452301,174.224228 338.667816,174.111099 336.918945,178.388092 
	C334.956879,183.186539 336.006348,194.035873 338.591431,196.130264 
	C339.217865,196.637787 340.071442,197.245193 340.783142,197.201202 
	C343.814392,197.013855 348.153778,197.696365 349.549164,196.014740 
	C351.732880,193.383087 351.922089,189.096451 353.098572,185.017090 
	C349.139465,185.017090 346.698303,185.017090 342.599396,185.017090 
	C344.557617,187.584091 345.784607,189.192505 347.478302,191.412750 
	C346.057465,191.911240 344.542480,192.988800 343.411499,192.676331 
	C342.406738,192.398697 341.379059,190.658218 341.161438,189.422546 
	C340.791656,187.322769 340.816040,185.077271 341.132019,182.961288 
	C341.325592,181.664871 342.179291,179.681595 343.081451,179.468719 
	C344.298279,179.181656 345.858185,180.272873 347.249878,180.825378 
	C348.503510,181.323090 349.728882,181.891907 350.966736,182.429352 
	C351.358978,181.287460 351.751251,180.145584 352.143494,179.003693 
	C354.726135,180.334137 357.308807,181.664581 360.204163,183.491577 
	C360.051666,185.997498 359.586456,188.006851 358.964233,190.342377 
	C358.237793,192.705765 357.668335,194.742981 357.085815,196.827057 
	C361.924408,199.120407 362.053253,195.446228 363.323486,192.691620 
	C365.464996,193.408554 367.206543,194.207565 368.928955,195.364288 
	C370.424469,196.385315 371.939056,197.048645 373.453674,197.711990 
M251.144775,193.375137 
	C251.116730,193.124283 251.005722,192.918091 250.674927,192.035187 
	C250.791931,191.286682 250.961212,190.542053 251.017212,189.789017 
	C251.323837,185.666641 252.646637,181.254547 251.610962,177.495621 
	C250.470016,173.354706 245.699478,175.075500 242.368378,174.834625 
	C241.442490,174.767685 240.490250,175.064957 239.138199,175.252167 
	C239.138199,181.954819 238.979355,188.415100 239.296539,194.851913 
	C239.348648,195.909454 241.492859,196.863907 243.276245,198.381866 
	C243.817764,195.083618 244.081558,193.476898 244.428604,191.363113 
	C247.436401,193.779495 247.110321,199.523087 252.668259,196.793701 
	C252.111725,195.696793 251.613358,194.714493 251.144775,193.375137 
M272.672455,194.792938 
	C272.446960,189.173813 272.442413,183.529800 271.814301,177.956055 
	C271.684753,176.806656 269.343079,175.335281 267.822784,175.042786 
	C265.305206,174.558426 262.626617,174.911057 259.491516,174.911057 
	C259.491516,180.969025 259.798401,186.597931 259.396210,192.175705 
	C259.063263,196.792587 260.915771,198.157150 265.095795,197.501953 
	C266.070709,197.349121 267.053131,197.243881 268.716309,197.194183 
	C269.847931,196.572708 270.979553,195.951233 272.672455,194.792938 
M309.789215,181.581223 
	C307.669952,179.005081 308.361359,172.881287 302.330933,175.270401 
	C302.330933,182.756668 302.330933,190.003342 302.330933,197.405319 
	C309.683472,197.932495 304.660553,191.353363 307.398407,189.478561 
	C310.823761,191.153305 309.072327,198.930038 315.850861,197.175674 
	C315.850861,189.535309 315.850861,182.421432 315.850861,174.886017 
	C314.286377,174.998001 312.940613,175.094330 312.204285,175.147034 
	C311.404327,177.937408 310.792999,180.069733 309.789215,181.581223 
M292.854034,196.478409 
	C296.999390,192.382996 295.423645,187.152725 295.376129,182.371597 
	C295.316559,176.369873 292.697235,174.079330 287.233429,174.225464 
	C281.737396,174.372452 279.672882,176.662216 279.487518,182.870148 
	C279.438141,184.524521 279.460907,186.181610 279.475555,187.837250 
	C279.556580,196.992294 283.060547,199.486893 292.854034,196.478409 
z"/>
<path fill="#8C523A" opacity="1.000000" stroke="none" 
	d="
M135.531342,1.000000 
	C140.348328,27.562582 148.424210,53.022152 157.906998,78.168106 
	C169.770813,109.627922 185.350891,139.100159 203.238327,167.455505 
	C204.373566,169.255081 204.984634,171.385300 205.521912,173.770966 
	C197.568375,174.877579 196.145142,176.426468 196.112396,184.090469 
	C196.104599,185.914536 196.057999,187.740829 196.127747,189.562347 
	C196.355270,195.504196 199.179962,198.179947 204.829849,197.869553 
	C210.437088,197.561523 212.366196,194.884430 211.444107,186.795670 
	C209.524673,188.549225 208.406662,189.775070 207.086227,190.717270 
	C205.858215,191.593552 204.438538,192.598679 203.054642,192.675842 
	C202.447372,192.709732 201.320709,190.640503 201.134827,189.418945 
	C200.814178,187.311829 200.853683,185.097549 201.113754,182.973755 
	C201.274338,181.662354 201.843002,179.699142 202.734863,179.359909 
	C203.806137,178.952454 205.466019,179.839325 206.779526,180.385788 
	C208.438156,181.075851 210.004425,181.987961 211.610535,182.804276 
	C213.938019,184.140793 216.265488,185.477310 218.911865,187.304840 
	C218.505905,190.870911 217.781082,193.945999 216.715683,198.465912 
	C219.281143,197.295563 220.697601,196.649384 222.114044,196.003204 
	C224.447586,198.269089 226.886932,200.436722 229.097809,202.816574 
	C245.524261,220.498352 261.927887,238.201553 278.267914,255.963135 
	C280.019653,257.867279 281.317841,260.188690 282.913208,262.658264 
	C242.979111,263.000000 202.958206,263.000000 162.366440,262.671722 
	C161.096619,261.221649 160.493866,260.024689 159.684631,258.989075 
	C141.143295,235.261765 124.450996,210.299759 109.483749,184.171478 
	C108.732216,182.859528 107.115891,182.042969 105.794006,180.621216 
	C105.070999,178.227081 107.043266,174.998444 102.951599,174.177582 
	C99.227936,165.971069 95.524483,158.180557 91.950958,150.330887 
	C81.000732,126.277466 70.456673,102.055809 63.217987,76.563286 
	C59.141415,62.206791 54.904907,47.875206 51.509846,33.352528 
	C49.024227,22.720074 47.791283,11.794774 46.000000,1.000000 
	C75.687561,1.000000 105.375122,1.000000 135.531342,1.000000 
M163.236786,184.045563 
	C165.562820,185.575119 167.989594,186.977371 170.164032,188.698441 
	C171.004456,189.363632 171.272644,190.751816 171.801529,191.810623 
	C170.515244,191.981598 169.185226,192.424438 167.958160,192.227112 
	C167.152054,192.097488 166.494537,191.043777 165.791656,190.422607 
	C162.274231,193.338638 162.340607,195.010559 165.901993,196.874695 
	C169.772110,198.900436 174.481674,197.728821 176.347580,194.276108 
	C178.431030,190.420883 177.219513,186.843536 172.942932,184.289124 
	C170.985306,183.119827 169.006470,181.986023 167.037247,180.836136 
	C167.283142,180.289871 167.529053,179.743607 167.774948,179.197342 
	C169.154785,179.525696 170.520950,180.016754 171.918488,180.134064 
	C173.172195,180.239304 174.460434,179.933472 175.733429,179.809006 
	C175.292770,178.547836 175.053162,176.333862 174.376480,176.191055 
	C171.507217,175.585541 168.225708,174.738815 165.627838,175.595886 
	C162.359482,176.674179 161.173676,179.854446 163.236786,184.045563 
M138.105164,196.119858 
	C138.407822,189.772217 132.541382,194.998337 130.714661,191.686111 
	C130.748627,191.006989 130.811874,189.742035 130.878479,188.409821 
	C132.888702,188.114929 134.620468,187.860901 136.352234,187.606857 
	C136.597656,187.172958 136.843079,186.739059 137.088501,186.305161 
	C136.006744,185.467346 134.963989,183.979446 133.836044,183.911789 
	C130.241806,183.696259 130.219269,181.964478 131.295532,179.055573 
	C133.444366,179.055573 135.548965,179.055573 137.620682,179.055573 
	C138.045349,174.319916 135.699295,173.627640 126.042618,175.420578 
	C126.042618,182.587860 126.042618,189.801041 126.042618,197.811996 
	C130.196548,197.478378 134.040924,197.169632 138.105164,196.119858 
M155.378632,179.044540 
	C156.425079,178.078278 157.471512,177.112000 158.517944,176.145721 
	C158.214142,175.761078 157.910339,175.376419 157.606537,174.991776 
	C152.866409,174.991776 148.126282,174.991776 143.478455,174.991776 
	C141.202301,180.277283 146.261032,178.350189 148.113297,179.754105 
	C148.113297,184.588959 147.958374,189.388321 148.224899,194.164169 
	C148.289551,195.322540 149.743240,196.403381 150.558212,197.519882 
	C151.334747,196.364532 152.665054,195.261932 152.781052,194.043686 
	C153.093857,190.758682 152.716446,187.411591 152.961090,184.114960 
	C153.087799,182.407532 153.952866,180.754868 155.378632,179.044540 
z"/>
<path fill="#884C34" opacity="1.000000" stroke="none" 
	d="
M105.902222,180.995743 
	C107.115891,182.042969 108.732216,182.859528 109.483749,184.171478 
	C124.450996,210.299759 141.143295,235.261765 159.684631,258.989075 
	C160.493866,260.024689 161.096619,261.221649 161.897781,262.671722 
	C108.383530,263.000000 54.767056,263.000000 1.075293,263.000000 
	C1.075293,175.666687 1.075293,88.333351 1.075293,1.000000 
	C15.756824,1.000000 30.409754,1.000000 45.531342,1.000000 
	C47.791283,11.794774 49.024227,22.720074 51.509846,33.352528 
	C54.904907,47.875206 59.141415,62.206791 63.217987,76.563286 
	C70.456673,102.055809 81.000732,126.277466 91.950958,150.330887 
	C95.524483,158.180557 99.227936,165.971069 102.613617,174.267212 
	C101.822487,175.942261 100.909927,177.114044 100.830116,178.340027 
	C100.614349,181.654266 101.121460,185.051010 100.598137,188.295074 
	C100.328369,189.967331 98.475471,191.384201 97.337906,192.916473 
	C96.244972,191.423035 94.366280,190.007263 94.209488,188.421280 
	C93.775330,184.029587 94.059097,179.566925 94.059097,175.132324 
	C93.611412,174.852234 93.163734,174.572144 92.716049,174.292053 
	C91.618706,175.258789 89.615051,176.190811 89.576469,177.198105 
	C89.379784,182.333252 89.336136,187.529404 89.932373,192.623047 
	C90.447121,197.020645 93.761803,198.355591 97.947197,197.911469 
	C101.725723,197.510498 104.797234,196.443390 105.068871,191.895187 
	C105.286087,188.258423 105.620071,184.628632 105.902222,180.995743 
M82.195717,197.351303 
	C82.551285,196.036819 82.906860,194.722321 83.327049,193.168945 
	C80.386108,192.992752 78.128044,192.857483 75.516197,192.701019 
	C75.737427,190.885254 75.905212,189.508194 76.030197,188.482346 
	C78.568039,187.398254 83.049309,189.648544 81.474556,184.307495 
	C75.745529,183.318939 75.745529,183.318939 76.235718,179.532822 
	C78.026772,177.755798 83.693810,181.400452 82.819740,175.216187 
	C78.616356,175.216187 75.022278,175.216187 71.271309,175.216187 
	C71.271309,182.670258 71.271309,189.865829 71.271309,197.524414 
	C74.865059,197.524414 78.154663,197.524414 82.195717,197.351303 
z"/>
<path fill="#98644E" opacity="1.000000" stroke="none" 
	d="
M556.000000,159.531342 
	C523.231323,154.045547 492.630341,142.584854 464.242462,124.978157 
	C448.598724,115.275627 434.220795,104.053757 421.075592,91.326523 
	C402.567047,73.406494 387.072235,53.048466 375.167877,30.145573 
	C370.366913,20.908957 366.387421,11.245350 362.017029,1.388036 
	C390.020905,1.000000 418.041779,1.000000 446.549225,1.379004 
	C447.481018,3.169795 447.660583,4.744643 448.411896,5.968557 
	C457.635345,20.994566 468.883209,34.507881 482.760620,45.218075 
	C494.688934,54.424042 507.671936,62.410488 520.787292,69.885796 
	C531.618103,76.058975 543.371887,80.555832 556.000000,82.000000 
	C556.000000,107.687561 556.000000,133.375122 556.000000,159.531342 
z"/>
<path fill="#9B6853" opacity="1.000000" stroke="none" 
	d="
M556.000000,81.531342 
	C543.371887,80.555832 531.618103,76.058975 520.787292,69.885796 
	C507.671936,62.410488 494.688934,54.424042 482.760620,45.218075 
	C468.883209,34.507881 457.635345,20.994566 448.411896,5.968557 
	C447.660583,4.744643 447.481018,3.169795 447.017883,1.379004 
	C483.249481,1.000000 519.498962,1.000000 556.000000,1.000000 
	C556.000000,27.687035 556.000000,54.374859 556.000000,81.531342 
z"/>
<path fill="#10C8F0" opacity="1.000000" stroke="none" 
	d="
M305.083923,122.522751 
	C300.864838,124.122635 296.789948,125.421509 292.495331,126.790421 
	C293.221008,127.796593 294.141205,129.072464 295.995697,131.643738 
	C288.751953,131.643738 282.551331,131.643738 276.350739,131.643738 
	C276.223846,132.069778 276.096985,132.495834 275.970093,132.921875 
	C278.148773,134.498215 280.327423,136.074539 283.479462,138.355133 
	C267.400513,140.239548 253.565781,138.371002 242.116714,124.620613 
	C240.142700,128.757156 238.180115,131.922684 237.084747,135.364212 
	C234.874496,142.308563 231.847687,148.527420 225.232407,152.876526 
	C223.759705,151.333527 222.431931,149.942368 220.619507,148.043442 
	C228.357956,144.275299 231.079239,137.559937 233.316238,130.214005 
	C234.327133,126.894402 237.155380,124.128235 239.301102,120.897194 
	C231.231262,111.598526 231.875473,100.564697 233.853943,88.737411 
	C235.848633,89.443848 237.315918,89.963486 239.304489,90.667755 
	C239.685791,82.935059 244.424805,77.845367 249.219269,72.394165 
	C252.937332,68.166855 254.934143,62.425652 257.960907,56.871410 
	C259.831360,61.411190 261.445343,65.771431 263.402100,69.972008 
	C266.218597,76.018280 266.324982,75.968719 272.742065,73.185074 
	C277.277130,68.210434 281.560181,63.519146 286.177185,58.462082 
	C286.799377,60.725193 287.490906,63.240406 288.473297,66.813759 
	C292.193939,62.719307 295.461853,59.123066 299.153107,55.060928 
	C299.602234,56.507210 299.932373,57.570305 300.310150,58.786865 
	C305.627350,55.990356 310.937775,53.197399 317.124237,49.943707 
	C313.876617,56.898964 311.312714,62.389900 308.498169,68.447098 
	C308.671417,69.250443 309.095276,69.487518 309.519165,69.724594 
	C310.435211,69.472404 311.351227,69.220215 312.267273,68.968025 
	C312.676361,69.274742 313.085449,69.581459 313.494537,69.888176 
	C310.970428,74.154953 308.446320,78.421730 305.918823,82.694252 
	C306.991211,82.600693 308.374817,82.479988 310.180817,82.322426 
	C308.978760,90.630280 303.491333,95.943535 297.008636,102.368721 
	C303.159729,103.964378 308.437012,105.333359 314.924286,107.016228 
	C311.775482,110.610031 308.659729,114.166122 306.263641,116.900841 
	C305.825897,119.150139 305.527008,120.685944 305.083923,122.522751 
z"/>
<path fill="#17C2E7" opacity="1.000000" stroke="none" 
	d="
M351.981232,178.714447 
	C351.751251,180.145584 351.358978,181.287460 350.966736,182.429352 
	C349.728882,181.891907 348.503510,181.323090 347.249878,180.825378 
	C345.858185,180.272873 344.298279,179.181656 343.081451,179.468719 
	C342.179291,179.681595 341.325592,181.664871 341.132019,182.961288 
	C340.816040,185.077271 340.791656,187.322769 341.161438,189.422546 
	C341.379059,190.658218 342.406738,192.398697 343.411499,192.676331 
	C344.542480,192.988800 346.057465,191.911240 347.478302,191.412750 
	C345.784607,189.192505 344.557617,187.584091 342.599396,185.017090 
	C346.698303,185.017090 349.139465,185.017090 353.098572,185.017090 
	C351.922089,189.096451 351.732880,193.383087 349.549164,196.014740 
	C348.153778,197.696365 343.814392,197.013855 340.783142,197.201202 
	C340.071442,197.245193 339.217865,196.637787 338.591431,196.130264 
	C336.006348,194.035873 334.956879,183.186539 336.918945,178.388092 
	C338.667816,174.111099 342.452301,174.224228 346.591797,174.300079 
	C348.608582,175.658020 350.213776,177.041611 351.981232,178.714447 
z"/>
<path fill="#19C0E4" opacity="1.000000" stroke="none" 
	d="
M415.868988,197.340195 
	C415.143036,189.994095 414.821625,182.776337 414.506989,175.709824 
	C423.517334,173.466843 426.936676,174.396301 426.661011,179.019058 
	C424.585327,179.019058 422.483215,179.019058 420.354156,179.019058 
	C419.175537,181.983475 419.303070,183.647812 422.845459,183.912720 
	C423.972168,183.996994 424.992981,185.497849 426.062256,186.350494 
	C425.805115,186.782990 425.548004,187.215485 425.290863,187.647980 
	C423.694122,187.846313 422.097412,188.044662 420.024475,188.302139 
	C419.902527,189.556610 419.768707,190.933380 419.600067,192.668121 
	C422.223846,192.851364 424.471344,193.008331 426.714386,193.164993 
	C427.708252,196.169128 427.192505,197.825897 423.740082,197.600677 
	C421.258911,197.438797 418.762939,197.504395 415.868988,197.340195 
M417.940186,189.933609 
	C417.940186,186.152725 417.940186,182.371826 417.940186,178.590942 
	C417.481995,178.611221 417.023804,178.631516 416.565613,178.651794 
	C416.565613,183.557068 416.565613,188.462341 416.565613,193.367615 
	C416.850281,193.385056 417.134918,193.402496 417.419586,193.419937 
	C417.589600,192.523590 417.759613,191.627258 417.940186,189.933609 
z"/>
<path fill="#17C2E7" opacity="1.000000" stroke="none" 
	d="
M452.837036,175.628845 
	C457.425415,173.119522 457.539764,177.564957 459.452515,179.691513 
	C461.674744,178.112610 461.824097,172.796448 465.869812,175.088867 
	C464.154968,182.409332 462.490540,189.514603 460.573059,197.700043 
	C459.623535,196.928711 457.217072,195.777420 457.319824,194.930634 
	C458.168121,187.939850 455.272888,181.986496 452.837036,175.628845 
z"/>
<path fill="#1CBEE0" opacity="1.000000" stroke="none" 
	d="
M402.230530,192.448792 
	C404.533630,192.876465 406.512360,192.981796 408.478668,193.086472 
	C409.469635,198.031403 406.530945,199.023636 397.151672,196.849579 
	C397.151672,189.807037 397.151672,182.714172 397.151672,175.372452 
	C400.452026,173.996277 401.731598,175.082413 401.649719,178.744781 
	C401.550140,183.201218 401.804718,187.665543 402.230530,192.448792 
z"/>
<path fill="#13C6ED" opacity="1.000000" stroke="none" 
	d="
M435.170135,197.350616 
	C434.719849,196.229218 433.903870,195.115494 433.880219,193.985153 
	C433.751892,187.853683 433.819305,181.718124 433.819305,175.679504 
	C444.533630,172.896179 447.297729,174.961044 446.838379,185.466171 
	C445.186188,185.716965 443.831055,185.776917 442.582733,185.447449 
	C443.041840,181.979813 443.254272,179.007050 438.228424,179.471191 
	C438.895721,182.297928 435.747345,186.014862 441.026917,187.394318 
	C442.476135,189.494354 443.896790,191.230423 445.317444,192.966492 
	C445.920288,194.227585 446.523132,195.488678 447.129974,196.758179 
	C441.445709,199.412125 442.058411,193.318939 438.926880,191.630264 
	C438.456085,193.589554 438.039246,195.324265 437.213837,196.712509 
	C436.805237,190.154388 436.805237,183.942749 436.805237,177.731094 
	C436.260193,177.749191 435.715179,177.767288 435.170135,177.785370 
	C435.170135,184.307129 435.170135,190.828873 435.170135,197.350616 
M444.493195,178.476028 
	C444.493195,178.476028 444.503784,178.511536 444.493195,178.476028 
z"/>
<path fill="#21BADA" opacity="1.000000" stroke="none" 
	d="
M383.919800,184.979950 
	C383.919739,187.746628 383.919739,190.035736 383.919739,192.669907 
	C386.552490,192.855835 388.780121,193.013138 390.957764,193.166916 
	C391.464508,198.039520 388.671265,198.912277 379.396149,196.886215 
	C379.396149,189.900467 379.396149,182.834213 379.396149,175.246506 
	C380.558655,175.129898 381.909058,174.994431 383.919891,174.792725 
	C383.919891,178.330811 383.919891,181.416595 383.919800,184.979950 
M382.528961,195.423813 
	C383.956543,195.569000 385.384094,195.714172 386.811676,195.859360 
	C386.816681,195.587143 386.821686,195.314941 386.826691,195.042725 
	C385.200531,195.042725 383.574371,195.042725 381.903320,194.103027 
	C381.903320,189.177780 381.903320,184.252533 381.903320,179.327286 
	C381.516541,179.344910 381.129791,179.362518 380.743011,179.380142 
	C381.160065,184.581238 381.577148,189.782349 382.528961,195.423813 
z"/>
<path fill="#13C6ED" opacity="1.000000" stroke="none" 
	d="
M368.948059,195.006592 
	C367.206543,194.207565 365.464996,193.408554 363.220520,192.483582 
	C362.491302,191.952271 362.265015,191.546936 362.463379,191.084473 
	C364.026001,190.984299 365.163910,190.905685 366.301910,190.904846 
	C369.843079,190.902191 370.683228,189.573334 368.480591,186.604599 
	C366.427185,189.459259 364.334808,190.365738 362.208771,186.901550 
	C362.457520,186.399887 362.516541,186.008392 362.575562,185.616898 
	C362.456360,185.638489 362.243561,185.638138 362.232574,185.685074 
	C362.131714,186.115387 362.065826,186.553894 361.804382,187.255447 
	C361.331268,188.329559 361.043549,189.138229 360.483521,189.961517 
	C359.847900,189.989471 359.484589,190.002838 359.121246,190.016205 
	C359.586456,188.006851 360.051666,185.997498 360.572296,183.600952 
	C360.782013,182.821609 360.936310,182.429474 361.484741,181.867325 
	C362.424530,181.515518 362.970215,181.333725 363.515900,181.151932 
	C362.986389,180.770477 362.456909,180.389023 361.927399,180.007568 
	C362.972229,178.286606 363.695007,175.481430 365.124878,175.056747 
	C368.784180,173.969849 368.440582,177.598831 369.071228,179.724045 
	C370.374023,184.114136 371.508881,188.554047 372.373169,193.526428 
	C371.005035,194.388443 369.976532,194.697510 368.948059,195.006592 
M365.900116,178.368713 
	C365.845551,178.363510 365.791016,178.358307 365.900116,178.368713 
z"/>
<path fill="#2FAEC7" opacity="1.000000" stroke="none" 
	d="
M435.439880,197.462662 
	C435.170135,190.828873 435.170135,184.307129 435.170135,177.785370 
	C435.715179,177.767288 436.260193,177.749191 436.805237,177.731094 
	C436.805237,183.942749 436.805237,190.154388 436.819336,196.858337 
	C436.458832,197.425323 436.084259,197.500015 435.439880,197.462662 
z"/>
<path fill="#19C0E4" opacity="1.000000" stroke="none" 
	d="
M445.259338,192.592041 
	C443.896790,191.230423 442.476135,189.494354 441.220764,187.256012 
	C441.749359,186.448105 442.112671,186.142487 442.475952,185.836884 
	C443.831055,185.776917 445.186188,185.716965 446.749115,185.817963 
	C446.371704,188.058487 445.786469,190.138031 445.259338,192.592041 
z"/>
<path fill="#1CBEE0" opacity="1.000000" stroke="none" 
	d="
M368.928955,195.364288 
	C369.976532,194.697510 371.005035,194.388443 372.412445,193.940399 
	C373.041840,194.912689 373.292328,196.023941 373.498230,197.423584 
	C371.939056,197.048645 370.424469,196.385315 368.928955,195.364288 
z"/>
<path fill="#1CBEE0" opacity="1.000000" stroke="none" 
	d="
M361.732910,180.243622 
	C362.456909,180.389023 362.986389,180.770477 363.515900,181.151932 
	C362.970215,181.333725 362.424530,181.515518 361.585419,181.678528 
	C361.374146,181.266373 361.456268,180.873016 361.732910,180.243622 
z"/>
<path fill="#18C1E5" opacity="1.000000" stroke="none" 
	d="
M309.985474,181.891647 
	C310.792999,180.069733 311.404327,177.937408 312.204285,175.147034 
	C312.940613,175.094330 314.286377,174.998001 315.850861,174.886017 
	C315.850861,182.421432 315.850861,189.535309 315.850861,197.175674 
	C309.072327,198.930038 310.823761,191.153305 307.398376,189.478638 
	C304.660553,191.353363 309.683472,197.932495 302.330933,197.405319 
	C302.330933,190.003342 302.330933,182.756668 302.330933,175.270401 
	C308.361359,172.881287 307.669952,179.005081 309.985474,181.891647 
z"/>
<path fill="#13C6ED" opacity="1.000000" stroke="none" 
	d="
M292.507446,196.677704 
	C283.060547,199.486893 279.556580,196.992294 279.475555,187.837250 
	C279.460907,186.181610 279.438141,184.524521 279.487518,182.870148 
	C279.672882,176.662216 281.737396,174.372452 287.233429,174.225464 
	C292.697235,174.079330 295.316559,176.369873 295.376129,182.371597 
	C295.423645,187.152725 296.999390,192.382996 292.507446,196.677704 
M290.860168,184.701324 
	C290.733398,182.112244 291.187469,178.623108 287.263245,179.294983 
	C285.948486,179.520096 285.148956,182.838104 284.156494,184.764328 
	C284.022339,185.024689 284.091431,185.421432 284.144989,185.741882 
	C284.607086,188.506500 282.663818,193.036911 287.527618,192.938812 
	C292.190582,192.844757 290.464661,188.406647 290.860168,184.701324 
M282.503448,181.526199 
	C282.503448,181.526199 282.489166,181.484161 282.503448,181.526199 
z"/>
<path fill="#18C0E4" opacity="1.000000" stroke="none" 
	d="
M211.720337,182.426544 
	C210.004425,181.987961 208.438156,181.075851 206.779526,180.385788 
	C205.466019,179.839325 203.806137,178.952454 202.734863,179.359909 
	C201.843002,179.699142 201.274338,181.662354 201.113754,182.973755 
	C200.853683,185.097549 200.814178,187.311829 201.134827,189.418945 
	C201.320709,190.640503 202.447372,192.709732 203.054642,192.675842 
	C204.438538,192.598679 205.858215,191.593552 207.086227,190.717270 
	C208.406662,189.775070 209.524673,188.549225 211.444107,186.795670 
	C212.366196,194.884430 210.437088,197.561523 204.829849,197.869553 
	C199.179962,198.179947 196.355270,195.504196 196.127747,189.562347 
	C196.057999,187.740829 196.104599,185.914536 196.112396,184.090469 
	C196.145142,176.426468 197.568375,174.877579 205.603485,174.131012 
	C209.906433,175.302902 212.775909,177.280518 211.720337,182.426544 
z"/>
<path fill="#1CBEE0" opacity="1.000000" stroke="none" 
	d="
M222.111359,195.597382 
	C220.697601,196.649384 219.281143,197.295563 216.715683,198.465912 
	C217.781082,193.945999 218.505905,190.870911 219.265274,187.396439 
	C220.194519,184.005630 220.864136,180.917969 222.083771,178.065491 
	C222.650391,176.740250 224.152176,175.346008 225.490021,175.005936 
	C226.221497,174.820007 228.071442,176.594513 228.428192,177.781998 
	C230.312241,184.053391 231.881744,190.419281 233.560349,196.752411 
	C233.153519,197.149536 232.746689,197.546677 232.339859,197.943802 
	C231.079575,197.040939 229.401428,196.400620 228.638031,195.185577 
	C226.428162,191.668259 224.541290,191.563812 222.111359,195.597382 
M223.647430,190.802582 
	C225.573792,190.802582 227.500153,190.802582 229.816513,190.802582 
	C229.479019,189.536774 229.240433,188.641907 228.983292,187.677475 
	C227.651382,188.182541 226.450684,188.542404 225.342651,189.089798 
	C224.531586,189.490463 223.842270,190.137573 223.647430,190.802582 
M227.519363,183.209396 
	C227.472122,183.408524 227.424866,183.607635 227.377640,183.806778 
	C227.485428,183.652725 227.593201,183.498672 227.519363,183.209396 
z"/>
<path fill="#10C8F0" opacity="1.000000" stroke="none" 
	d="
M268.032104,197.116730 
	C267.053131,197.243881 266.070709,197.349121 265.095795,197.501953 
	C260.915771,198.157150 259.063263,196.792587 259.396210,192.175705 
	C259.798401,186.597931 259.491516,180.969025 259.491516,174.911057 
	C262.626617,174.911057 265.305206,174.558426 267.822784,175.042786 
	C269.343079,175.335281 271.684753,176.806656 271.814301,177.956055 
	C272.442413,183.529800 272.446960,189.173813 272.262146,194.818100 
	C268.041962,191.339279 268.734589,195.399979 268.032104,197.116730 
M266.457031,180.155411 
	C264.149994,181.763275 264.967163,182.624741 266.583374,183.644455 
	C261.940521,185.435074 262.197113,181.526047 261.297943,177.879196 
	C261.297943,184.013901 261.297943,188.979736 261.297943,193.945572 
	C262.561829,185.930252 262.561829,185.930252 269.771912,183.996918 
	C268.475616,183.592667 267.804657,183.383423 267.089447,182.386276 
	C267.085999,181.602173 267.082520,180.818085 267.136383,179.969818 
	C267.136383,179.969818 266.964996,179.924423 266.457031,180.155411 
M268.720459,191.101547 
	C269.473328,187.039566 267.230347,186.850357 264.286896,187.155563 
	C264.286896,189.365814 264.286896,191.094498 264.286896,193.445831 
	C265.934814,192.736298 267.090027,192.238892 268.720459,191.101547 
z"/>
<path fill="#17C2E7" opacity="1.000000" stroke="none" 
	d="
M251.114975,193.732208 
	C251.613358,194.714493 252.111725,195.696793 252.668259,196.793701 
	C247.110321,199.523087 247.436401,193.779495 244.428604,191.363113 
	C244.081558,193.476898 243.817764,195.083618 243.276245,198.381866 
	C241.492859,196.863907 239.348648,195.909454 239.296539,194.851913 
	C238.979355,188.415100 239.138199,181.954819 239.138199,175.252167 
	C240.490250,175.064957 241.442490,174.767685 242.368378,174.834625 
	C245.699478,175.075500 250.470016,173.354706 251.610962,177.495621 
	C252.646637,181.254547 251.323837,185.666641 251.017212,189.789017 
	C250.961212,190.542053 250.791931,191.286682 250.587738,192.516968 
	C250.370422,193.228806 250.240295,193.458847 250.110168,193.688904 
	C250.445099,193.703323 250.780045,193.717758 251.114975,193.732208 
M243.841034,184.272736 
	C244.713409,185.059952 245.585785,185.847168 246.458176,186.634399 
	C247.020004,185.239243 248.163788,183.761795 247.981384,182.471863 
	C247.795685,181.158386 246.304703,180.029480 245.385239,178.819748 
	C244.969604,179.080200 244.553970,179.340637 244.138336,179.601089 
	C244.035904,180.877899 243.933487,182.154709 243.841034,184.272736 
M241.956955,185.152267 
	C242.656067,182.097549 239.789368,177.798950 244.538330,175.923782 
	C242.987289,176.914429 241.317673,178.227905 241.212067,179.656967 
	C240.863663,184.371735 241.080811,189.128296 241.080811,193.534775 
	C242.342987,192.042374 243.619537,190.532974 244.348969,189.670502 
	C243.642136,188.575394 242.810715,187.287216 241.956955,185.152267 
z"/>
<path fill="#1CBEE0" opacity="1.000000" stroke="none" 
	d="
M362.038696,191.141602 
	C362.265015,191.546936 362.491302,191.952271 362.820557,192.565659 
	C362.053253,195.446228 361.924408,199.120407 357.085815,196.827057 
	C357.668335,194.742981 358.237793,192.705765 358.964233,190.342377 
	C359.484589,190.002838 359.847900,189.989471 360.664673,190.194275 
	C361.424957,190.655502 361.731842,190.898544 362.038696,191.141602 
z"/>
<path fill="#24B6D5" opacity="1.000000" stroke="none" 
	d="
M268.374207,197.155457 
	C268.734589,195.399979 268.041962,191.339279 271.981506,195.086517 
	C270.979553,195.951233 269.847931,196.572708 268.374207,197.155457 
z"/>
<path fill="#1DBDDF" opacity="1.000000" stroke="none" 
	d="
M251.129883,193.553665 
	C250.780045,193.717758 250.445099,193.703323 250.110168,193.688904 
	C250.240295,193.458847 250.370422,193.228806 250.656143,192.877655 
	C251.005722,192.918091 251.116730,193.124283 251.129883,193.553665 
z"/>
<path fill="#18C0E4" opacity="1.000000" stroke="none" 
	d="
M163.050278,183.720642 
	C161.173676,179.854446 162.359482,176.674179 165.627838,175.595886 
	C168.225708,174.738815 171.507217,175.585541 174.376480,176.191055 
	C175.053162,176.333862 175.292770,178.547836 175.733429,179.809006 
	C174.460434,179.933472 173.172195,180.239304 171.918488,180.134064 
	C170.520950,180.016754 169.154785,179.525696 167.774948,179.197342 
	C167.529053,179.743607 167.283142,180.289871 167.037247,180.836136 
	C169.006470,181.986023 170.985306,183.119827 172.942932,184.289124 
	C177.219513,186.843536 178.431030,190.420883 176.347580,194.276108 
	C174.481674,197.728821 169.772110,198.900436 165.901993,196.874695 
	C162.340607,195.010559 162.274231,193.338638 165.791656,190.422607 
	C166.494537,191.043777 167.152054,192.097488 167.958160,192.227112 
	C169.185226,192.424438 170.515244,191.981598 171.801529,191.810608 
	C171.272644,190.751816 171.004456,189.363632 170.164032,188.698441 
	C167.989594,186.977371 165.562820,185.575119 163.050278,183.720642 
z"/>
<path fill="#1CBCDE" opacity="1.000000" stroke="none" 
	d="
M105.794006,180.621216 
	C105.620071,184.628632 105.286087,188.258423 105.068871,191.895187 
	C104.797234,196.443390 101.725723,197.510498 97.947197,197.911469 
	C93.761803,198.355591 90.447121,197.020645 89.932373,192.623047 
	C89.336136,187.529404 89.379784,182.333252 89.576469,177.198105 
	C89.615051,176.190811 91.618706,175.258789 92.716049,174.292053 
	C93.163734,174.572144 93.611412,174.852234 94.059097,175.132324 
	C94.059097,179.566925 93.775330,184.029587 94.209488,188.421280 
	C94.366280,190.007263 96.244972,191.423035 97.337906,192.916473 
	C98.475471,191.384201 100.328369,189.967331 100.598137,188.295074 
	C101.121460,185.051010 100.614349,181.654266 100.830116,178.340027 
	C100.909927,177.114044 101.822487,175.942261 102.693245,174.656158 
	C107.043266,174.998444 105.070999,178.227081 105.794006,180.621216 
M92.245117,189.341034 
	C92.459953,185.792450 92.674782,182.243881 92.889618,178.695297 
	C92.272606,178.698318 91.655586,178.701340 91.038574,178.704361 
	C91.251579,182.234833 91.464592,185.765320 92.245117,189.341034 
M93.537376,194.526352 
	C93.537376,194.526352 93.510239,194.460541 93.537376,194.526352 
z"/>
<path fill="#19BFE2" opacity="1.000000" stroke="none" 
	d="
M137.995239,196.490372 
	C134.040924,197.169632 130.196548,197.478378 126.042618,197.811996 
	C126.042618,189.801041 126.042618,182.587860 126.042618,175.420578 
	C135.699295,173.627640 138.045349,174.319916 137.620682,179.055573 
	C135.548965,179.055573 133.444366,179.055573 131.295532,179.055573 
	C130.219269,181.964478 130.241806,183.696259 133.836044,183.911789 
	C134.963989,183.979446 136.006744,185.467346 137.088501,186.305161 
	C136.843079,186.739059 136.597656,187.172958 136.352234,187.606857 
	C134.620468,187.860901 132.888702,188.114929 130.878479,188.409821 
	C130.811874,189.742035 130.748627,191.006989 130.714661,191.686111 
	C132.541382,194.998337 138.407822,189.772217 137.995239,196.490372 
M133.104630,175.967957 
	C131.250427,176.669800 127.882149,177.217117 127.792160,178.098984 
	C127.277351,183.143677 127.542023,188.267914 127.542023,193.365143 
	C127.990387,193.355728 128.438751,193.346313 128.887115,193.336899 
	C128.887115,190.727829 128.956207,188.116486 128.871124,185.510193 
	C128.738998,181.462677 128.222885,177.277588 133.104630,175.967957 
z"/>
<path fill="#19BFE2" opacity="1.000000" stroke="none" 
	d="
M154.931488,179.061005 
	C153.952866,180.754868 153.087799,182.407532 152.961090,184.114960 
	C152.716446,187.411591 153.093857,190.758682 152.781052,194.043686 
	C152.665054,195.261932 151.334747,196.364532 150.558212,197.519882 
	C149.743240,196.403381 148.289551,195.322540 148.224899,194.164169 
	C147.958374,189.388321 148.113297,184.588959 148.113297,179.754105 
	C146.261032,178.350189 141.202301,180.277283 143.478455,174.991776 
	C148.126282,174.991776 152.866409,174.991776 157.606537,174.991776 
	C157.910339,175.376419 158.214142,175.761078 158.517944,176.145721 
	C157.471512,177.112000 156.425079,178.078278 154.931488,179.061005 
M147.282043,176.802353 
	C148.206512,178.226166 149.783188,179.586807 149.928482,181.086105 
	C150.306259,184.985062 150.055466,188.944946 150.055466,194.318680 
	C152.267990,187.439713 148.812485,181.351456 153.033722,175.972824 
	C150.913864,176.116394 148.971115,176.247955 147.282043,176.802353 
z"/>
<path fill="#18C0E4" opacity="1.000000" stroke="none" 
	d="
M81.819992,197.437866 
	C78.154663,197.524414 74.865059,197.524414 71.271309,197.524414 
	C71.271309,189.865829 71.271309,182.670258 71.271309,175.216187 
	C75.022278,175.216187 78.616356,175.216187 82.819740,175.216187 
	C83.693810,181.400452 78.026772,177.755798 76.235718,179.532822 
	C75.745529,183.318939 75.745529,183.318939 81.474556,184.307495 
	C83.049309,189.648544 78.568039,187.398254 76.030197,188.482346 
	C75.905212,189.508194 75.737427,190.885254 75.516197,192.701019 
	C78.128044,192.857483 80.386108,192.992752 83.327049,193.168945 
	C82.906860,194.722321 82.551285,196.036819 81.819992,197.437866 
M73.949501,191.819336 
	C73.904907,190.852356 73.860321,189.885376 73.761131,187.734344 
	C72.480759,195.833008 72.733414,196.137314 78.214973,195.657623 
	C77.152779,194.879532 75.570297,193.720322 73.949501,191.819336 
M75.545082,177.098236 
	C76.712105,176.946793 77.879128,176.795334 79.046150,176.643875 
	C79.023827,176.445389 79.001503,176.246887 78.979179,176.048386 
	C77.223618,176.150894 75.468048,176.253387 73.410568,176.373520 
	C73.410568,178.494949 73.410568,180.241699 73.410568,182.386642 
	C73.970909,180.421066 74.410103,178.880463 75.545082,177.098236 
M76.694588,185.750183 
	C77.303726,185.750183 77.912857,185.750183 78.521996,185.750183 
	C78.526688,185.566879 78.531387,185.383575 78.536079,185.200272 
	C77.847954,185.280334 77.159828,185.360382 76.694588,185.750183 
z"/>
<path fill="#945E48" opacity="1.000000" stroke="none" 
	d="
M309.287109,69.434395 
	C309.095276,69.487518 308.671417,69.250443 308.410065,68.796112 
	C308.733398,68.767303 308.894226,68.955750 309.287109,69.434395 
z"/>
<path fill="#2FAEC7" opacity="1.000000" stroke="none" 
	d="
M417.934906,190.332260 
	C417.759613,191.627258 417.589600,192.523590 417.419586,193.419937 
	C417.134918,193.402496 416.850281,193.385056 416.565613,193.367615 
	C416.565613,188.462341 416.565613,183.557068 416.565613,178.651794 
	C417.023804,178.631516 417.481995,178.611221 417.940186,178.590942 
	C417.940186,182.371826 417.940186,186.152725 417.934906,190.332260 
z"/>
<path fill="#816C5F" opacity="1.000000" stroke="none" 
	d="
M442.582733,185.447449 
	C442.112671,186.142487 441.749359,186.448105 441.192200,186.892029 
	C435.747345,186.014862 438.895721,182.297928 438.228424,179.471191 
	C443.254272,179.007050 443.041840,181.979813 442.582733,185.447449 
z"/>
<path fill="#19C0E4" opacity="1.000000" stroke="none" 
	d="
M444.498474,178.493774 
	C444.503784,178.511536 444.493195,178.476028 444.498474,178.493774 
z"/>
<path fill="#4E9098" opacity="1.000000" stroke="none" 
	d="
M381.994202,194.983444 
	C381.577148,189.782349 381.160065,184.581238 380.743011,179.380142 
	C381.129791,179.362518 381.516541,179.344910 381.903320,179.327286 
	C381.903320,184.252533 381.903320,189.177780 381.939240,194.559113 
	C381.975159,195.015198 381.994202,194.983444 381.994202,194.983444 
z"/>
<path fill="#4E9098" opacity="1.000000" stroke="none" 
	d="
M381.961670,195.028961 
	C383.574371,195.042725 385.200531,195.042725 386.826691,195.042725 
	C386.821686,195.314941 386.816681,195.587143 386.811676,195.859360 
	C385.384094,195.714172 383.956543,195.569000 382.261597,195.203629 
	C381.994202,194.983444 381.975159,195.015198 381.961670,195.028961 
z"/>
<path fill="#33A6BB" opacity="1.000000" stroke="none" 
	d="
M362.463379,191.084473 
	C361.731842,190.898544 361.424957,190.655502 360.936951,190.179688 
	C361.043549,189.138229 361.331268,188.329559 361.810486,187.260986 
	C362.001984,187.001114 362.019043,187.011703 362.019043,187.011703 
	C364.334808,190.365738 366.427185,189.459259 368.480591,186.604599 
	C370.683228,189.573334 369.843079,190.902191 366.301910,190.904846 
	C365.163910,190.905685 364.026001,190.984299 362.463379,191.084473 
z"/>
<path fill="#1CBEE0" opacity="1.000000" stroke="none" 
	d="
M365.818298,178.360916 
	C365.791016,178.358307 365.845551,178.363510 365.818298,178.360916 
z"/>
<path fill="#33A6BB" opacity="1.000000" stroke="none" 
	d="
M361.995880,186.995575 
	C362.065826,186.553894 362.131714,186.115387 362.232574,185.685074 
	C362.243561,185.638138 362.456360,185.638489 362.575562,185.616898 
	C362.516541,186.008392 362.457520,186.399887 362.208771,186.901550 
	C362.019043,187.011703 362.001984,187.001114 361.995880,186.995575 
z"/>
<path fill="#86604E" opacity="1.000000" stroke="none" 
	d="
M290.860779,185.138397 
	C290.464661,188.406647 292.190582,192.844757 287.527618,192.938812 
	C282.663818,193.036911 284.607086,188.506500 284.144989,185.741882 
	C284.091431,185.421432 284.022339,185.024689 284.156494,184.764328 
	C285.148956,182.838104 285.948486,179.520096 287.263245,179.294983 
	C291.187469,178.623108 290.733398,182.112244 290.860779,185.138397 
z"/>
<path fill="#1DBDDF" opacity="1.000000" stroke="none" 
	d="
M282.496307,181.505188 
	C282.489166,181.484161 282.503448,181.526199 282.496307,181.505188 
z"/>
<path fill="#33A6BB" opacity="1.000000" stroke="none" 
	d="
M223.373062,190.738708 
	C223.842270,190.137573 224.531586,189.490463 225.342651,189.089798 
	C226.450684,188.542404 227.651382,188.182541 228.983292,187.677475 
	C229.240433,188.641907 229.479019,189.536774 229.816513,190.802582 
	C227.500153,190.802582 225.573792,190.802582 223.373062,190.738708 
z"/>
<path fill="#33A6BB" opacity="1.000000" stroke="none" 
	d="
M227.610168,183.277008 
	C227.593201,183.498672 227.485428,183.652725 227.377625,183.806763 
	C227.424866,183.607635 227.472122,183.408524 227.610168,183.277008 
z"/>
<path fill="#4E9098" opacity="1.000000" stroke="none" 
	d="
M267.133698,183.174179 
	C267.804657,183.383423 268.475616,183.592667 269.771912,183.996918 
	C262.561829,185.930252 262.561829,185.930252 261.297943,193.945572 
	C261.297943,188.979736 261.297943,184.013901 261.297943,177.879196 
	C262.197113,181.526047 261.940521,185.435074 266.824432,183.343201 
	C267.065491,183.041962 267.133698,183.174179 267.133698,183.174179 
z"/>
<path fill="#86604E" opacity="1.000000" stroke="none" 
	d="
M268.482849,191.421509 
	C267.090027,192.238892 265.934814,192.736298 264.286896,193.445831 
	C264.286896,191.094498 264.286896,189.365814 264.286896,187.155563 
	C267.230347,186.850357 269.473328,187.039566 268.482849,191.421509 
z"/>
<path fill="#13C6ED" opacity="1.000000" stroke="none" 
	d="
M267.079041,180.033981 
	C267.082520,180.818085 267.085999,181.602173 267.111572,182.780228 
	C267.133698,183.174179 267.065491,183.041962 267.119507,183.098145 
	C264.967163,182.624741 264.149994,181.763275 266.738159,180.068726 
	C267.019318,179.982025 267.079041,180.033981 267.079041,180.033981 
z"/>
<path fill="#13C6ED" opacity="1.000000" stroke="none" 
	d="
M266.992157,179.953217 
	C266.964996,179.924423 267.136383,179.969818 267.107727,180.001892 
	C267.079041,180.033981 267.019318,179.982025 266.992157,179.953217 
z"/>
<path fill="#86604E" opacity="1.000000" stroke="none" 
	d="
M243.836044,183.852127 
	C243.933487,182.154709 244.035904,180.877899 244.138336,179.601089 
	C244.553970,179.340637 244.969604,179.080200 245.385239,178.819748 
	C246.304703,180.029480 247.795685,181.158386 247.981384,182.471863 
	C248.163788,183.761795 247.020004,185.239243 246.458160,186.634399 
	C245.585785,185.847168 244.713409,185.059952 243.836044,183.852127 
z"/>
<path fill="#4E9098" opacity="1.000000" stroke="none" 
	d="
M241.968124,185.575653 
	C242.810715,187.287216 243.642136,188.575394 244.348969,189.670502 
	C243.619537,190.532974 242.342987,192.042374 241.080811,193.534775 
	C241.080811,189.128296 240.863663,184.371735 241.212067,179.656967 
	C241.317673,178.227905 242.987289,176.914429 244.538330,175.923782 
	C239.789368,177.798950 242.656067,182.097549 241.968124,185.575653 
z"/>
<path fill="#33A6BB" opacity="1.000000" stroke="none" 
	d="
M91.961365,189.318420 
	C91.464592,185.765320 91.251579,182.234833 91.038574,178.704361 
	C91.655586,178.701340 92.272606,178.698318 92.889618,178.695297 
	C92.674782,182.243881 92.459953,185.792450 91.961365,189.318420 
z"/>
<path fill="#33A6BB" opacity="1.000000" stroke="none" 
	d="
M93.523804,194.493439 
	C93.510239,194.460541 93.537376,194.526352 93.523804,194.493439 
z"/>
<path fill="#33A6BB" opacity="1.000000" stroke="none" 
	d="
M133.379730,176.021027 
	C128.222885,177.277588 128.738998,181.462677 128.871124,185.510193 
	C128.956207,188.116486 128.887115,190.727829 128.887115,193.336899 
	C128.438751,193.346313 127.990387,193.355728 127.542023,193.365143 
	C127.542023,188.267914 127.277351,183.143677 127.792160,178.098984 
	C127.882149,177.217117 131.250427,176.669800 133.379730,176.021027 
z"/>
<path fill="#4E9098" opacity="1.000000" stroke="none" 
	d="
M147.155212,176.590942 
	C148.971115,176.247955 150.913864,176.116394 153.033722,175.972824 
	C148.812485,181.351456 152.267990,187.439713 150.055466,194.318680 
	C150.055466,188.944946 150.306259,184.985062 149.928482,181.086105 
	C149.783188,179.586807 148.206512,178.226166 147.155212,176.590942 
z"/>
<path fill="#4C8A92" opacity="1.000000" stroke="none" 
	d="
M73.968658,192.190216 
	C75.570297,193.720322 77.152779,194.879532 78.214973,195.657623 
	C72.733414,196.137314 72.480759,195.833008 73.761131,187.734344 
	C73.860321,189.885376 73.904907,190.852356 73.968658,192.190216 
z"/>
<path fill="#4C8A92" opacity="1.000000" stroke="none" 
	d="
M75.197189,177.219055 
	C74.410103,178.880463 73.970909,180.421066 73.410568,182.386642 
	C73.410568,180.241699 73.410568,178.494949 73.410568,176.373520 
	C75.468048,176.253387 77.223618,176.150894 78.979179,176.048386 
	C79.001503,176.246887 79.023827,176.445389 79.046150,176.643875 
	C77.879128,176.795334 76.712105,176.946793 75.197189,177.219055 
z"/>
<path fill="#4C8A92" opacity="1.000000" stroke="none" 
	d="
M76.583145,185.595306 
	C77.159828,185.360382 77.847954,185.280334 78.536079,185.200272 
	C78.531387,185.383575 78.526688,185.566879 78.521996,185.750183 
	C77.912857,185.750183 77.303726,185.750183 76.583145,185.595306 
z"/>
</svg>